
<svg xmlns="http://www.w3.org/2000/svg" xmlns:xlink="http://www.w3.org/1999/xlink" viewBox="0 0 72 94">
  <defs>
    <linearGradient id="d" x1="50%" x2="0%" y1="54.9%" y2="100%">
      <stop offset="0%" stop-color="#E1E2E6"/>
      <stop offset="100%" stop-color="#C9CCD0"/>
    </linearGradient>
    <linearGradient id="e" x1="50%" x2="100%" y1="50%" y2="0%">
      <stop offset="0%" stop-color="#ADB0B8"/>
      <stop offset="100%" stop-color="#B7B9C2"/>
    </linearGradient>
    <circle id="a" cx="32.1" cy="32.1" r="32.1"/>
    <path id="c" d="M2 0a2 2 0 104 0h2a2 2 0 104 0h2a2 2 0 104 0h2a2 2 0 104 0h2a2 2 0 104 0h2v32H6.5L0 25.5V0h2z"/>
  </defs>
  <g fill="none" fill-rule="evenodd">
    <g transform="translate(11.7 2.2)">
      <path stroke="#80868B" stroke-linecap="round" stroke-width="3" d="M4 75.3L36.9.2"/>
      <path fill="#5F6368" d="M59.7 37.7A39.2 39.2 0 010 71l1.3-2.8A36.1 36.1 0 1030.4 2.8L31.6.2a39.2 39.2 0 0128.1 37.6z"/>
      <path stroke="#5F6368" stroke-linecap="round" stroke-width="3" d="M20.6 75.4v11"/>
      <circle cx="20.4" cy="75.3" r="2.9" fill="#3C4043"/>
      <path fill="#3C4043" d="M17.7 92C18 85.2 19 81.8 20.6 82c1.6-.2 2.5 3.2 2.8 10.2h-5.7z"/>
      <path fill="#5F6368" d="M4.4 92.8c5.8-3.4 11.4-5 16.6-5a29 29 0 0115.7 5"/>
    </g>
    <g transform="translate(0 7.7)">
      <mask id="b" fill="#fff">
        <use xlink:href="#a"/>
      </mask>
      <use fill="#B2CEFA" xlink:href="#a"/>
      <circle cx="40.7" cy="24.8" r="32.1" fill="#D2E3FC" mask="url(#b)"/>
      <path fill="#77CC8E" fill-rule="nonzero" d="M39.6 58.6c1.9-2 2-5.1 0-7.2a6.6 6.6 0 01-1-6.6l1-2.2c.8-1.8.2-3.8-1.3-4.9L24 28.1a6.7 6.7 0 01-2-8.8l2.3-4.4c.7-1.3.5-2.8-.5-3.8 0 0-3-3.5-2.6-5.6 1.5-6.4 8.1-4.4 9.4-7l1.5-3 16.6 6.1-2.5 4.1a2 2 0 001 3l3.3 1.2a.7.7 0 010 1.4L47 12.7c-1.1.4-2 1.2-2.5 2.3a3 3 0 001.1 3.9l4.6 2.9c1.5 1 2.5 2.6 2.6 4.4v.2a4.8 4.8 0 01-4.9 4.9l-7.3-.1c-1.2 0-1.8 1.6-.7 2.3l4.3 3c1.4 1 2 2.8 1.4 4.5l-.4 1.3c-.7 2 .1 4 2 5l6 3.4a4.8 4.8 0 011 7.7L48 64.3l-17.7 4.1 9.3-9.8z" mask="url(#b)"/>
      <path fill="#66B17B" fill-rule="nonzero" d="M13.1 63.2l2.2-7.3c1.1-4-1-8-5-9.2l-4-1.3A2 2 0 015 42.6l3.3-6.3a7 7 0 00-.4-7L7.3 28c-1.3-2-3.7-3.1-6-2.9l-10.7 1.2 5.5 25.2 17 11.6z" mask="url(#b)"/>
    </g>
    <g>
      <g transform="translate(29.5 48)">
        <mask id="f" fill="#fff">
          <use xlink:href="#c"/>
        </mask>
        <use fill="url(#d)" xlink:href="#c"/>
        <path fill="url(#e)" d="M0 25.5h6.5V32H0z" mask="url(#f)"/>
      </g>
      <g stroke="#34A853" stroke-linecap="round">
        <path d="M34.1 58.1l1.4 1.4M35.5 59.5l2.7-2.7"/>
      </g>
      <g stroke="#34A853" stroke-linecap="round">
        <path d="M34.1 65.1l1.4 1.4M35.5 66.5l2.7-2.7"/>
      </g>
      <path stroke="#686C71" stroke-linecap="round" d="M42.5 58.5h13M42.5 65.5h13M42.5 72.5h13"/>
    </g>
  </g>
</svg>